<?xml version="1.0"?>
<svg xmlns="http://www.w3.org/2000/svg" id="Layer_1" data-name="Layer 1" viewBox="0 0 128 128" width="512px" height="512px" class=""><g><script xmlns="" class="active-path" style=""/><title class="active-path">CLOW</title><path d="M103.261,81.412l-10.1-9.932c.038-.606.063-1.215.063-1.83v-16A9.394,9.394,0,0,0,103.29,39.746a13.528,13.528,0,0,0,2.979-8.5A13.671,13.671,0,0,0,95.913,18.028a8.494,8.494,0,0,0-15.626-3.113,11.4,11.4,0,0,0-2.581-.3,11.578,11.578,0,0,0-11.295,9.109,29.74,29.74,0,0,0-4.823,0,11.578,11.578,0,0,0-11.295-9.109,11.4,11.4,0,0,0-2.581.3,8.494,8.494,0,0,0-15.626,3.113A13.671,13.671,0,0,0,21.731,31.243a13.528,13.528,0,0,0,2.979,8.5A9.392,9.392,0,0,0,34.776,53.655v16c0,.615.026,1.224.063,1.83l-10.1,9.929A35.289,35.289,0,0,0,10.75,109.671v5.711a1.75,1.75,0,0,0,3.5,0v-5.711A31.792,31.792,0,0,1,26.119,84.792l8.656,3.963v14.877a1.749,1.749,0,0,0,2.082,1.718l13.436-2.6,12.62,10a1.748,1.748,0,0,0,2.174,0l12.62-10,13.436,2.6a1.749,1.749,0,0,0,2.082-1.718V88.755l8.656-3.962a31.789,31.789,0,0,1,11.87,24.878v5.711a1.75,1.75,0,0,0,3.5,0v-5.711A35.287,35.287,0,0,0,103.261,81.412ZM77.706,18.118a8.045,8.045,0,0,1,2.868.536,1.749,1.749,0,0,0,2.264-1.025,5,5,0,0,1,9.683,1.67c0,.032-.008.119-.008.15a1.748,1.748,0,0,0,1.512,1.775,10.113,10.113,0,0,1,5.8,17.149,1.752,1.752,0,0,0-.109,2.346,5.9,5.9,0,1,1-10.166,1.937,1.75,1.75,0,0,0-.964-2.139,10.168,10.168,0,0,1-5.469-5.866,1.749,1.749,0,0,0-2.32-1.025,8.063,8.063,0,1,1-3.094-15.508ZM26.939,44.463a5.9,5.9,0,0,1,1.342-3.743,1.752,1.752,0,0,0-.109-2.346,10.113,10.113,0,0,1,5.8-17.149,1.748,1.748,0,0,0,1.512-1.775l-.006-.081a5,5,0,0,1,9.681-1.739,1.749,1.749,0,0,0,2.264,1.025A8.058,8.058,0,1,1,47.2,33.626a1.75,1.75,0,0,0-2.32,1.025,10.168,10.168,0,0,1-5.469,5.866,1.75,1.75,0,0,0-.964,2.139,5.9,5.9,0,1,1-11.508,1.807Zm15.292,0a9.321,9.321,0,0,0-.105-1.4A13.717,13.717,0,0,0,47.5,37.4,11.562,11.562,0,0,0,61.8,27.222a26.272,26.272,0,0,1,4.393,0A11.562,11.562,0,0,0,80.5,37.4a13.717,13.717,0,0,0,5.372,5.661A9.364,9.364,0,0,0,89.7,52.092c.007.251.023.5.023.751V69.65a25.724,25.724,0,1,1-51.447,0V52.843c0-.252.015-.5.022-.751A9.382,9.382,0,0,0,42.231,44.463ZM90.746,86.041a1.749,1.749,0,0,0-1.021,1.591v13.879L77.582,99.164a1.744,1.744,0,0,0-1.419.347L64,109.149,51.837,99.511a1.748,1.748,0,0,0-1.419-.347l-12.143,2.347V87.632a1.749,1.749,0,0,0-1.021-1.591l-8.345-3.82L35.434,75.8a29.221,29.221,0,0,0,57.132,0l6.525,6.417Z" data-original="#000000" class="active-path" fill="#FFFFFF"/><path d="M64,69.868a7.875,7.875,0,1,0-7.875-7.875A7.883,7.883,0,0,0,64,69.868Zm0-12.25a4.375,4.375,0,1,1-4.375,4.375A4.38,4.38,0,0,1,64,57.618Z" data-original="#000000" class="active-path" fill="#FFFFFF"/><path d="M45.75,52.7H47v1.25a1.75,1.75,0,0,0,3.5,0V52.7h1.25a1.75,1.75,0,0,0,0-3.5H50.5v-1.25a1.75,1.75,0,0,0-3.5,0V49.2H45.75a1.75,1.75,0,0,0,0,3.5Z" data-original="#000000" class="active-path" fill="#FFFFFF"/><path d="M76.25,52.7H77.5v1.25a1.75,1.75,0,0,0,3.5,0V52.7h1.25a1.75,1.75,0,0,0,0-3.5H81v-1.25a1.75,1.75,0,0,0-3.5,0V49.2H76.25a1.75,1.75,0,0,0,0,3.5Z" data-original="#000000" class="active-path" fill="#FFFFFF"/><path d="M64,91.493A21.482,21.482,0,0,0,85.458,70.035a5.25,5.25,0,0,0-10.5,0,10.958,10.958,0,0,1-21.916,0,5.25,5.25,0,0,0-10.5,0A21.482,21.482,0,0,0,64,91.493ZM47.792,68.285a1.752,1.752,0,0,1,1.75,1.75,14.458,14.458,0,0,0,28.916,0,1.75,1.75,0,0,1,3.5,0,17.958,17.958,0,0,1-35.916,0A1.752,1.752,0,0,1,47.792,68.285Z" data-original="#000000" class="active-path" fill="#FFFFFF"/><path d="M36.526,108.465a1.75,1.75,0,0,0-1.75,1.75v5.167a1.75,1.75,0,0,0,3.5,0v-5.167A1.75,1.75,0,0,0,36.526,108.465Z" data-original="#000000" class="active-path" fill="#FFFFFF"/><path d="M91.474,108.465a1.75,1.75,0,0,0-1.75,1.75v5.167a1.75,1.75,0,0,0,3.5,0v-5.167A1.75,1.75,0,0,0,91.474,108.465Z" data-original="#000000" class="active-path" fill="#FFFFFF"/></g> </svg>
