<?xml version="1.0"?>
<svg xmlns="http://www.w3.org/2000/svg" id="Capa_1" enable-background="new 0 0 512 512" height="512px" viewBox="0 0 512 512" width="512px"><g><script xmlns="" class="active-path" style=""/><path d="m316 422c-8.284 0-15 6.716-15 15v40c0 8.284 6.716 15 15 15s15-6.716 15-15v-40c0-8.284-6.716-15-15-15z" data-original="#000000" class="active-path" fill="#FFFFFF"/><path d="m256 392c-8.284 0-15 6.716-15 15v90c0 8.284 6.716 15 15 15s15-6.716 15-15v-90c0-8.284-6.716-15-15-15z" data-original="#000000" class="active-path" fill="#FFFFFF"/><path d="m136 362c-8.284 0-15 6.716-15 15v120c0 8.284 6.716 15 15 15s15-6.716 15-15v-120c0-8.284-6.716-15-15-15z" data-original="#000000" class="active-path" fill="#FFFFFF"/><path d="m76 322c-8.284 0-15 6.716-15 15v160c0 8.284 6.716 15 15 15s15-6.716 15-15v-160c0-8.284-6.716-15-15-15z" data-original="#000000" class="active-path" fill="#FFFFFF"/><path d="m196 422c-8.284 0-15 6.716-15 15v60c0 8.284 6.716 15 15 15s15-6.716 15-15v-60c0-8.284-6.716-15-15-15z" data-original="#000000" class="active-path" fill="#FFFFFF"/><path d="m196 322c-8.284 0-15 6.716-15 15v40c0 8.284 6.716 15 15 15s15-6.716 15-15v-40c0-8.284-6.716-15-15-15z" data-original="#000000" class="active-path" fill="#FFFFFF"/><path d="m376 362c-8.284 0-15 6.716-15 15v120c0 8.284 6.716 15 15 15s15-6.716 15-15v-120c0-8.284-6.716-15-15-15z" data-original="#000000" class="active-path" fill="#FFFFFF"/><path d="m436 422c-8.284 0-15 6.716-15 15v60c0 8.284 6.716 15 15 15s15-6.716 15-15v-60c0-8.284-6.716-15-15-15z" data-original="#000000" class="active-path" fill="#FFFFFF"/><path d="m436 322c-8.284 0-15 6.716-15 15v40c0 8.284 6.716 15 15 15s15-6.716 15-15v-40c0-8.284-6.716-15-15-15z" data-original="#000000" class="active-path" fill="#FFFFFF"/><path d="m430.159 101.053c-6.907-56.856-55.47-101.053-114.159-101.053-30.771 0-59.632 12.084-81.102 33.57-14.69-8.819-31.617-13.57-48.898-13.57-39.448 0-74.295 24.295-88.376 60.331-53.994 4.283-96.624 49.592-96.624 104.669 0 57.897 47.103 105 105 105h115.693l83.018 94.877c2.938 3.357 7.089 5.124 11.296 5.123 2.688 0 5.399-.721 7.829-2.21 6.233-3.819 8.806-11.574 6.091-18.361l-31.772-79.429h117.845c52.383 0 95-42.617 95-95 0-47.571-35.151-87.089-80.841-93.947zm-154.159 158.947c-4.978 0-9.631 2.469-12.421 6.591-2.791 4.121-3.354 9.359-1.506 13.98l7.382 18.457-29.66-33.898c-.002-.002-.004-.005-.006-.007l-30.732-35.123h26.943c5.198 0 10.026-2.692 12.76-7.114 2.733-4.422 2.981-9.945.656-14.594l-29.145-58.292h36.459l55 110zm140 0h-70.729l-65.854-131.708c-2.541-5.082-7.735-8.292-13.417-8.292h-70c-5.198 0-10.026 2.692-12.76 7.114-2.733 4.422-2.981 9.945-.656 14.594l29.145 58.292h-35.729c-5.886 0-11.228 3.442-13.659 8.802-2.433 5.36-1.505 11.646 2.37 16.076l30.732 35.122h-89.443c-41.355 0-75-33.645-75-75 0-41.337 33.614-74.971 74.945-75 .162.007.322.021.482.032.572.04 1.145.076 1.723.093 7.011.214 13.23-4.477 14.97-11.273 7.365-28.764 33.223-48.852 62.88-48.852 15.174 0 29.948 5.355 41.601 15.079 3.119 2.604 7.169 3.828 11.2 3.399 4.04-.431 7.731-2.481 10.232-5.683 16.276-20.842 40.684-32.795 66.967-32.795 46.869 0 85 38.131 85 85 0 8.284 6.716 15 15 15 35.841 0 65 29.159 65 65s-29.159 65-65 65z" data-original="#000000" class="active-path" fill="#FFFFFF"/></g> </svg>
